<svg xmlns="http://www.w3.org/2000/svg" viewBox="0 0 24 24" fill="currentColor">
  <path d="M6.75 3A2.75 2.75 0 0 0 4 5.75v12.5A2.75 2.75 0 0 0 6.75 21h10.5A2.75 2.75 0 0 0 20 18.25V8.62a2.75 2.75 0 0 0-.8-1.94L16.32 3.8A2.75 2.75 0 0 0 14.38 3H6.75Zm0 1.5h7.5V8a1.75 1.75 0 0 0 1.75 1.75h2.5v8.5c0 .69-.56 1.25-1.25 1.25H6.75c-.69 0-1.25-.56-1.25-1.25V5.75c0-.69.56-1.25 1.25-1.25Zm9 1.06 1.69 1.69c.27.27.47.61.56 1H16a.25.25 0 0 1-.25-.25V5.56Z"/>
  <path d="M8.2 11.3a.75.75 0 0 1 1.06 0l.74.74 1.99-1.99a.75.75 0 1 1 1.06 1.06l-2.52 2.52a.75.75 0 0 1-1.06 0L8.2 12.36a.75.75 0 0 1 0-1.06Zm0 4a.75.75 0 0 1 1.06 0l.74.74 1.99-1.99a.75.75 0 1 1 1.06 1.06l-2.52 2.52a.75.75 0 0 1-1.06 0L8.2 16.36a.75.75 0 0 1 0-1.06Zm6.55-3.05a.75.75 0 0 1 .75-.75h1.25a.75.75 0 0 1 0 1.5H15.5a.75.75 0 0 1-.75-.75Zm0 4a.75.75 0 0 1 .75-.75h1.25a.75.75 0 0 1 0 1.5H15.5a.75.75 0 0 1-.75-.75Z"/>
</svg>
