<svg xmlns="http://www.w3.org/2000/svg" viewBox="0 0 24 24" fill="none" stroke="currentColor" stroke-width="1.8" stroke-linecap="round" stroke-linejoin="round">
  <path d="M5 17c2.2 2.3 6.2 2.4 8.2.4 1.4-1.4 1.2-3.4-.3-4.5-1.3-.9-3.2-.8-4.5.2-1.2.9-1.4 2.4-.5 3.4 1 1.2 3.1 1.3 4.6.1"/>
  <path d="M12.5 16.6c2.2-1.6 2.9-4.3 1.4-6.1-1.2-1.4-3.4-1.5-5-.4"/>
  <path d="M8.9 10.1c-1.4.9-3.1.5-4.2-.7L3.3 7.9"/>
  <path d="M3.3 7.9c1.5-.9 3.1-1.1 4.7-.5"/>
  <path d="M15.2 9.3c1.9-.7 4.3.1 5.6 1.9"/>
  <path d="M20.8 11.2c-.9.6-2.1.8-3.2.5"/>
  <path d="M17.8 8.1l.4 1.7"/>
  <path d="M19.8 8.8l-.9 1.4"/>
  <path d="M5.8 7.1l.2-1.6"/>
  <path d="M7.4 7.2l.9-1.3"/>
  <path d="M4.7 8.5h.01"/>
  <path d="M6.2 8h.01"/>
</svg>
