<svg xmlns="http://www.w3.org/2000/svg" viewBox="0 0 24 24" fill="none" stroke="currentColor" stroke-width="1.8" stroke-linecap="round" stroke-linejoin="round">
  <path d="M8.5 5.5h5.2"/>
  <path d="M10.2 5.5V3.8h3.5v1.7"/>
  <path d="M12.9 5.5c1.8.5 3 2.1 3 4v.8"/>
  <path d="M8.8 8.8h5.4"/>
  <path d="M8.2 8.8 6.8 12c-.3.7-.5 1.5-.5 2.3v4.3c0 1 .8 1.8 1.8 1.8h6.7c1 0 1.8-.8 1.8-1.8v-4.3c0-.8-.2-1.6-.5-2.3l-1.4-3.2"/>
  <path d="M8.6 13.4h5.8"/>
  <path d="M8.6 17.2h5.8"/>
  <path d="M16.1 8.2h2.1"/>
  <path d="M18.9 7.2h2"/>
  <path d="M18.9 9.2h2"/>
  <path d="M19.3 5.3l1.5-.9"/>
  <path d="M19.3 11.1l1.5.9"/>
  <path d="M5.2 15.4H3.6"/>
  <path d="M5.2 18.2H3.6"/>
</svg>
