<svg xmlns="http://www.w3.org/2000/svg" viewBox="0 0 24 24" fill="currentColor"><path d="M19.006 3.705a.75.75 0 1 0-.512-1.41L6 6.838V3a.75.75 0 0 0-.75-.75h-1.5A.75.75 0 0 0 3 3v4.93l-1.006.365a.75.75 0 0 0 .512 1.41l16.5-6ZM3.019 11.815l.386.14a.75.75 0 0 0 .512-1.41L3 10.164v-.185l.386.14ZM3 15a.75.75 0 0 1 .75-.75h16.5a.75.75 0 0 1 0 1.5H3.75A.75.75 0 0 1 3 15ZM3.75 18a.75.75 0 0 0 0 1.5h3a.75.75 0 0 0 0-1.5h-3ZM9.75 18a.75.75 0 0 0 0 1.5h3a.75.75 0 0 0 0-1.5h-3ZM15.75 18a.75.75 0 0 0 0 1.5h3a.75.75 0 0 0 0-1.5h-3Z"/></svg>