<?xml version="1.0" standalone="no"?>
<!DOCTYPE svg PUBLIC "-//W3C//DTD SVG 20010904//EN"
 "http://www.w3.org/TR/2001/REC-SVG-20010904/DTD/svg10.dtd">
<svg version="1.0" xmlns="http://www.w3.org/2000/svg"
 width="512.000000pt" height="512.000000pt" viewBox="0 0 512.000000 512.000000"
 preserveAspectRatio="xMidYMid meet">

<g transform="translate(0.000000,512.000000) scale(0.100000,-0.100000)"
fill="#000000" stroke="none">
<path d="M1163 4785 c-85 -23 -153 -63 -219 -129 -34 -34 -73 -85 -88 -114
-59 -117 -56 -2 -56 -1982 0 -1980 -3 -1865 56 -1982 34 -67 135 -168 202
-202 114 -58 60 -56 1498 -56 858 0 1340 4 1375 10 183 35 344 196 379 379 6
35 10 536 10 1432 l0 1379 -427 1 c-479 0 -508 4 -617 69 -69 42 -148 124
-182 191 -51 103 -54 130 -54 591 l0 428 -912 -1 c-753 0 -922 -3 -965 -14z
m1460 -1759 c18 -8 185 -168 379 -362 375 -377 370 -371 353 -461 -9 -49 -69
-109 -118 -118 -85 -16 -96 -9 -314 208 l-203 201 -2 -716 c-3 -706 -3 -717
-24 -744 -39 -53 -71 -69 -134 -69 -63 0 -95 16 -134 69 -21 27 -21 38 -24
744 l-2 716 -203 -201 c-218 -217 -229 -224 -314 -208 -49 9 -109 69 -118 118
-17 90 -22 84 353 461 191 191 361 354 377 362 39 17 88 17 128 0z"/>
<path d="M3362 4371 c3 -416 4 -430 24 -457 11 -15 33 -37 48 -48 27 -20 41
-21 457 -24 474 -3 445 -7 415 61 -18 41 -852 873 -889 887 -62 22 -58 50 -55
-419z"/>
</g>
</svg>
