<svg xmlns="http://www.w3.org/2000/svg" viewBox="0 0 24 24" fill="currentColor"><path fill-rule="evenodd" d="M7.875 1.5C6.839 1.5 6 2.34 6 3.375v2.99c-.426.053-.851.11-1.274.174-1.454.218-2.476 1.483-2.476 2.917v6.294a3 3 0 0 0 3 3h.27l-.155 1.705A1.875 1.875 0 0 0 7.232 22.5h9.536a1.875 1.875 0 0 0 1.867-2.045l-.155-1.705h.27a3 3 0 0 0 3-3V9.456c0-1.434-1.022-2.7-2.476-2.917A48.716 48.716 0 0 0 18 6.366V3.375c0-1.036-.84-1.875-1.875-1.875h-8.25ZM16.5 6.205v-2.83A.375.375 0 0 0 16.125 3h-8.25a.375.375 0 0 0-.375.375v2.83a49.353 49.353 0 0 1 9 0Zm-.217 8.265c.03.29.048.582.048.877a.75.75 0 0 1-1.5 0 7.5 7.5 0 0 0-.343-2.254.75.75 0 1 1 1.43-.45c.119.375.237.75.343 1.127l.022.7Z" clip-rule="evenodd"/></svg>