<?xml version="1.0" standalone="no"?>
<!DOCTYPE svg PUBLIC "-//W3C//DTD SVG 20010904//EN"
 "http://www.w3.org/TR/2001/REC-SVG-20010904/DTD/svg10.dtd">
<svg version="1.0" xmlns="http://www.w3.org/2000/svg"
 width="512.000000pt" height="512.000000pt" viewBox="0 0 512.000000 512.000000"
 preserveAspectRatio="xMidYMid meet">

<g transform="translate(0.000000,512.000000) scale(0.100000,-0.100000)"
fill="#000000" stroke="none">
<path d="M1450 5102 c-126 -63 -97 -256 42 -278 l38 -7 -2 -191 -3 -191 -35
-5 c-47 -8 -83 -33 -104 -73 -16 -29 -17 -99 -14 -889 l3 -856 25 -27 c53 -56
37 -55 597 -55 584 0 565 -2 610 76 21 36 23 51 23 222 l0 184 268 -5 c239 -4
275 -6 342 -26 210 -62 362 -186 451 -366 50 -104 69 -177 76 -300 20 -357
-193 -651 -542 -747 -80 -22 -84 -23 -1165 -28 -1198 -6 -1109 0 -1153 -70
-22 -34 -22 -43 -25 -452 l-3 -418 1123 0 c1293 0 1309 1 1568 87 824 272
1308 1148 1098 1988 -158 636 -658 1113 -1305 1246 -95 20 -147 23 -420 27
l-313 4 0 181 c0 153 -3 187 -18 217 -21 42 -75 80 -113 80 l-29 0 0 195 c0
190 1 195 20 195 43 0 101 40 121 83 23 53 23 81 0 134 -14 30 -31 48 -60 62
-39 20 -55 21 -553 21 -468 0 -516 -2 -548 -18z m1145 -1167 c91 -24 160 -63
219 -125 182 -190 180 -475 -4 -661 -118 -120 -290 -165 -452 -120 -244 67
-389 305 -337 553 54 259 315 419 574 353z"/>
<path d="M2402 3633 c-84 -41 -117 -156 -70 -238 27 -47 94 -85 149 -85 56 0
119 39 146 90 29 55 29 104 1 160 -41 80 -145 113 -226 73z"/>
<path d="M1530 2133 c0 -111 15 -148 72 -183 31 -19 51 -20 393 -20 412 0 411
0 453 80 18 36 22 61 22 132 l0 88 -470 0 -470 0 0 -97z"/>
<path d="M477 279 c-41 -21 -76 -81 -77 -128 0 -48 38 -108 84 -130 42 -21 48
-21 1517 -21 1383 0 1476 1 1509 18 107 53 107 211 0 264 -33 17 -125 18
-1515 18 -1465 -1 -1480 -1 -1518 -21z"/>
</g>
</svg>
