<?xml version="1.0" standalone="no"?>
<!DOCTYPE svg PUBLIC "-//W3C//DTD SVG 20010904//EN"
 "http://www.w3.org/TR/2001/REC-SVG-20010904/DTD/svg10.dtd">
<svg version="1.0" xmlns="http://www.w3.org/2000/svg"
 width="512.000000pt" height="512.000000pt" viewBox="0 0 512.000000 512.000000"
 preserveAspectRatio="xMidYMid meet">

<g transform="translate(0.000000,512.000000) scale(0.100000,-0.100000)"
fill="#000000" stroke="none">
<path d="M1450 5047 c-118 -33 -194 -145 -218 -323 -38 -276 196 -619 723
-1059 137 -115 427 -328 627 -463 279 -186 237 -171 349 -129 118 45 211 67
316 75 l82 7 -43 101 c-209 493 -865 1292 -1326 1616 -206 145 -391 209 -510
175z"/>
<path d="M1066 3745 c-68 -19 -126 -62 -156 -115 -50 -91 -21 -266 61 -371
139 -176 536 -330 1080 -420 l135 -23 210 69 c115 38 219 73 231 78 20 9 4 23
-165 136 -103 69 -205 140 -227 156 -172 129 -318 244 -420 330 l-120 102 -92
22 c-214 50 -432 65 -537 36z"/>
<path d="M3149 2974 c-139 -25 -306 -94 -335 -139 -24 -37 -14 -297 15 -407
23 -89 114 -264 184 -356 49 -64 49 -64 21 -58 -16 3 -127 19 -247 37 l-219
32 -26 -20 c-36 -27 -38 -57 -13 -263 12 -93 21 -173 21 -178 0 -5 -37 -25
-82 -45 -68 -28 -181 -55 -613 -143 l-530 -107 -570 -204 c-641 -228 -640
-228 -604 -306 10 -23 46 -47 70 -47 6 0 214 72 462 161 249 89 502 178 562
200 81 28 254 68 652 148 425 87 557 117 609 141 37 17 68 29 69 28 1 -2 14
-98 29 -214 l26 -211 -200 -430 c-110 -237 -200 -442 -200 -455 0 -56 58 -90
107 -64 39 20 443 889 443 950 -1 23 -13 139 -29 259 l-27 218 25 13 c47 24
588 256 597 256 7 0 251 -379 287 -445 3 -6 -10 -147 -29 -315 -18 -168 -34
-320 -34 -338 0 -37 19 -59 343 -389 143 -147 173 -173 198 -173 37 0 79 40
79 75 0 29 -11 42 -277 321 l-182 191 29 299 c16 164 30 319 30 343 0 39 -13
64 -126 237 -69 107 -122 199 -119 204 3 6 26 10 51 10 l44 0 0 53 c0 146 90
304 218 386 61 39 160 71 217 71 54 0 55 5 19 98 -120 304 -378 526 -669 577
-105 18 -174 18 -276 -1z m-249 -1100 c102 -14 186 -27 188 -28 1 -2 -84 -40
-189 -85 -106 -45 -194 -80 -196 -77 -4 4 -32 187 -33 214 0 8 8 11 23 7 12
-2 105 -16 207 -31z"/>
<path d="M2561 2779 c-46 -16 -85 -30 -87 -32 -2 -1 13 -25 31 -52 75 -109
125 -294 125 -462 0 -77 2 -84 18 -78 9 4 37 14 62 23 55 18 55 18 43 34 -20
25 -62 144 -78 223 -9 44 -20 146 -24 226 l-6 146 -84 -28z"/>
<path d="M2230 2668 c-30 -11 -134 -49 -230 -85 -96 -36 -176 -66 -178 -68 -2
-2 13 -25 34 -52 78 -101 134 -261 154 -437 6 -50 13 -92 15 -94 2 -2 103 35
223 83 l219 88 7 71 c11 121 -13 256 -64 357 -29 57 -105 159 -118 158 -4 0
-32 -9 -62 -21z"/>
<path d="M1442 2334 l-192 -95 46 -57 c94 -116 134 -238 134 -414 0 -59 4
-108 8 -108 4 0 89 38 187 84 99 46 190 86 202 90 31 10 37 41 30 150 -7 106
-45 246 -89 329 -34 62 -88 117 -117 117 -10 0 -104 -43 -209 -96z"/>
<path d="M4053 2150 c-95 -20 -179 -87 -222 -179 -37 -79 -37 -183 0 -262 55
-116 159 -183 286 -184 45 0 73 -4 73 -11 0 -5 -38 -139 -85 -297 -47 -158
-85 -300 -85 -316 0 -23 53 -101 228 -337 125 -170 239 -315 253 -323 55 -31
127 36 101 94 -6 13 -103 149 -216 302 l-205 279 67 227 c37 125 70 227 73
227 3 0 24 -70 47 -156 23 -87 48 -164 54 -172 18 -21 466 -242 492 -242 58 0
86 63 49 109 -10 12 -110 70 -222 129 l-205 107 -68 265 -69 265 18 50 c25 71
23 176 -6 241 -27 62 -100 136 -161 163 -54 23 -140 33 -197 21z"/>
<path d="M1024 2086 c-139 -112 -231 -244 -254 -365 -18 -99 14 -186 85 -226
85 -49 166 -41 317 32 l97 46 8 56 c20 148 1 286 -52 391 -27 53 -91 130 -109
130 -6 0 -48 -29 -92 -64z"/>
</g>
</svg>
