<svg xmlns="http://www.w3.org/2000/svg" viewBox="0 0 24 24" fill="currentColor"><path fill-rule="evenodd" d="M4.848 2.771A49.144 49.144 0 0 1 12 2.25c2.43 0 4.817.178 7.152.52 1.978.292 3.348 2.024 3.348 3.97v6.02c0 1.946-1.37 3.678-3.348 3.97a48.901 48.901 0 0 1-3.152.292.75.75 0 0 0-.512.21l-3.688 3.69V17.25a.75.75 0 0 0-.75-.75h-.75a.75.75 0 0 0 0 1.5h.001v3a.75.75 0 0 0 1.28.53l4.19-4.19c.985-.067 1.96-.166 2.927-.295 2.979-.43 5.152-2.973 5.152-5.793v-6.02c0-2.82-2.173-5.363-5.152-5.793A50.667 50.667 0 0 0 12 .75a50.667 50.667 0 0 0-7.152.52C1.923 1.637-.25 4.18-.25 7v6.02c0 2.37 1.598 4.57 3.86 5.433V20.5a.75.75 0 0 0 1.28.53l2.64-2.64a.75.75 0 0 0-.53-1.28H6.75v-1.35c-2.083-.816-3.5-2.82-3.5-5.06V7c0-2.18 1.522-4.068 3.598-4.229Z" clip-rule="evenodd"/></svg>