<?xml version="1.0" standalone="no"?>
<!DOCTYPE svg PUBLIC "-//W3C//DTD SVG 20010904//EN"
 "http://www.w3.org/TR/2001/REC-SVG-20010904/DTD/svg10.dtd">
<svg version="1.0" xmlns="http://www.w3.org/2000/svg"
 width="600.000000pt" height="600.000000pt" viewBox="0 0 600.000000 600.000000"
 preserveAspectRatio="xMidYMid meet">
<g transform="translate(0.000000,600.000000) scale(0.100000,-0.100000)"
fill="#000000" stroke="none">
<path d="M3682 5125 c-23 -10 -38 -27 -51 -57 -10 -24 -106 -232 -213 -463
-108 -231 -246 -530 -308 -665 -61 -135 -117 -251 -124 -258 -26 -26 -590 12
-856 59 -321 56 -519 146 -481 218 37 69 372 154 751 191 144 14 557 28 670
22 l86 -4 34 78 c19 43 37 82 39 87 5 13 -659 2 -804 -13 -402 -41 -712 -111
-888 -202 -89 -47 -127 -88 -127 -140 0 -35 63 -462 240 -1622 162 -1061 144
-976 221 -1060 86 -95 258 -166 519 -214 204 -39 316 -47 625 -47 258 1 322 4
453 23 318 47 539 122 641 217 89 83 87 76 211 890 224 1471 270 1781 270
1817 0 29 -8 45 -35 73 -44 43 -144 94 -250 128 -148 46 -135 49 -177 -37 -21
-41 -34 -77 -30 -79 4 -3 43 -14 87 -26 87 -24 159 -61 169 -87 16 -41 -52
-92 -184 -139 -74 -26 -281 -78 -287 -71 -2 2 61 140 140 307 294 620 337 716
337 742 0 49 -38 74 -325 206 -154 71 -289 131 -300 134 -11 4 -35 0 -53 -8z"/>
</g>
</svg>
