<?xml version="1.0" standalone="no"?>
<!DOCTYPE svg PUBLIC "-//W3C//DTD SVG 20010904//EN"
 "http://www.w3.org/TR/2001/REC-SVG-20010904/DTD/svg10.dtd">
<svg version="1.0" xmlns="http://www.w3.org/2000/svg"
 width="64.000000pt" height="64.000000pt" viewBox="0 0 64.000000 64.000000"
 preserveAspectRatio="xMidYMid meet">

<g transform="translate(0.000000,64.000000) scale(0.100000,-0.100000)"
fill="#000000" stroke="none">
<path d="M115 610 c-11 -18 5 -30 39 -30 39 0 50 8 35 27 -13 15 -65 18 -74 3z"/>
<path d="M312 587 c-77 -26 -91 -34 -86 -49 8 -26 -4 -56 -27 -63 -13 -4 -19
-15 -19 -36 0 -17 -6 -32 -15 -35 -20 -8 -45 13 -45 37 0 10 -11 29 -25 43
-18 19 -25 21 -25 10 0 -19 140 -456 149 -466 3 -4 84 18 179 48 131 43 172
60 172 73 -1 28 -146 465 -155 467 -6 1 -52 -12 -103 -29z m108 -53 c15 -39
13 -42 -42 -59 -56 -16 -63 -14 -73 26 -6 24 -3 28 37 42 60 21 67 21 78 -9z
m27 -90 c-9 -9 -272 -94 -291 -94 -36 0 -8 12 136 60 122 40 173 51 155 34z
m18 -53 c-14 -13 -297 -103 -303 -96 -10 10 6 17 140 60 132 43 181 54 163 36z
m15 -50 c0 -12 -287 -104 -303 -98 -15 6 -1 12 158 63 148 48 145 47 145 35z
m16 -58 c-13 -13 -296 -101 -301 -93 -6 10 248 98 284 99 13 1 21 -2 17 -6z
m5 -33 c22 -12 26 -59 7 -78 -27 -27 -88 -3 -88 34 0 16 35 54 51 54 6 0 19
-5 30 -10z m-171 -78 c0 -5 -19 -14 -42 -21 -24 -7 -51 -15 -60 -17 -10 -3
-18 -1 -18 5 0 6 21 17 48 25 56 17 72 19 72 8z m20 -50 c0 -10 -110 -46 -118
-38 -8 8 -3 11 48 29 52 18 70 20 70 9z"/>
<path d="M355 528 c-38 -13 -37 -12 -30 -31 5 -12 13 -13 43 -5 45 12 44 11
36 32 -7 18 -8 18 -49 4z"/>
<path d="M451 227 c-17 -21 -3 -47 26 -47 21 0 24 4 21 27 -3 31 -29 41 -47
20z"/>
<path d="M120 546 c0 -21 17 -29 45 -22 16 4 22 11 19 21 -8 20 -64 20 -64 1z"/>
<path d="M100 509 c0 -4 9 -13 20 -19 13 -7 20 -21 20 -40 0 -17 5 -30 10 -30
6 0 10 13 10 28 0 21 7 32 25 40 14 6 25 16 25 22 0 6 -10 5 -26 -2 -19 -9
-33 -9 -55 -1 -16 6 -29 7 -29 2z"/>
</g>
</svg>
