<svg xmlns="http://www.w3.org/2000/svg" viewBox="0 0 24 24" fill="currentColor"><path fill-rule="evenodd" d="M10.5 3.798v5.02a3 3 0 0 1-.879 2.121l-2.377 2.377a9.845 9.845 0 0 1 5.091 1.013 8.315 8.315 0 0 0 5.713.636l.285-.071-3.954-3.955a3 3 0 0 1-.879-2.121v-5.02a23.614 23.614 0 0 0-3 0Zm4.5.138a.75.75 0 0 0 .093-1.495A24.837 24.837 0 0 0 12 2.25a25.048 25.048 0 0 0-3.093.191A.75.75 0 0 0 9 3.936v4.882a1.5 1.5 0 0 1-.44 1.06L5.28 13.16a3.75 3.75 0 0 0-.564 4.516l.728-1.275a.75.75 0 0 1 .649-.374h9.814a.75.75 0 0 1 .65.374l.727 1.275a3.75 3.75 0 0 0-.563-4.516l-3.28-3.277A1.5 1.5 0 0 1 13.5 8.818V4.076a25.312 25.312 0 0 1 1.5.062Z" clip-rule="evenodd"/></svg>