<svg version="1.0" xmlns="http://www.w3.org/2000/svg" width="48pt" height="48pt" viewBox="0 0 48 48" preserveAspectRatio="xMidYMid meet">
<g transform="translate(0,48) scale(0.1,-0.1)" fill="#25D366" stroke="none">
<path d="M140 433 c-97 -51 -141 -157 -106 -262 14 -43 14 -54 1 -97 -8 -26 -13 -49 -12 -51 2 -1 26 4 55 11 44 12 57 12 94 -1 137 -47 288 62 288 207 0 113 -92 210 -208 218 -48 3 -66 -1 -112 -25z m185 -2 c22 -10 55 -34 72 -54 142 -162 -26 -405 -230 -333 -28 10 -47 11 -78 4 -22 -6 -42 -8 -45 -5 -3 3 -1 22 5 43 8 30 7 48 -4 79 -63 177 112 343 280 266z"/>
<path d="M160 398 c-78 -40 -115 -124 -90 -203 7 -22 13 -57 13 -78 1 -37 2 -38 29 -33 15 3 43 -1 62 -9 50 -21 95 -19 146 7 132 67 132 249 0 316 -24 12 -60 22 -80 22 -20 0 -56 -10 -80 -22z m31 -69 c6 -12 8 -36 5 -54 -6 -28 -2 -36 30 -64 34 -31 37 -31 55 -15 16 14 24 15 44 6 29 -13 32 -34 9 -56 -41 -42 -144 13 -188 101 -19 37 -20 57 -6 84 14 25 36 24 51 -2z"/>
</g>
</svg>
