<?xml version="1.0" standalone="no"?>
<!DOCTYPE svg PUBLIC "-//W3C//DTD SVG 20010904//EN"
 "http://www.w3.org/TR/2001/REC-SVG-20010904/DTD/svg10.dtd">
<svg version="1.0" xmlns="http://www.w3.org/2000/svg"
 width="1016.000000pt" height="996.000000pt" viewBox="0 0 1016.000000 996.000000"
 preserveAspectRatio="xMidYMid meet">

<g transform="translate(0.000000,996.000000) scale(0.100000,-0.100000)"
fill="#000000" stroke="none">
<path d="M918 9750 c-151 -26 -267 -89 -383 -205 -100 -99 -146 -174 -187
-305 -23 -74 -23 -82 -23 -490 0 -407 0 -416 23 -490 64 -201 173 -338 352
-438 144 -81 251 -95 687 -90 306 4 345 7 416 26 219 60 407 228 487 435 16
43 34 106 40 140 5 34 10 223 10 420 0 418 -5 460 -77 607 -39 81 -60 109
-137 185 -98 98 -173 144 -301 186 -68 22 -83 23 -465 25 -217 1 -416 -1 -442
-6z m882 -321 c109 -53 152 -95 202 -196 l43 -86 3 -366 c3 -258 0 -382 -8
-421 -32 -144 -137 -260 -285 -315 -44 -17 -90 -19 -386 -23 -210 -2 -359 1
-395 7 -126 23 -244 105 -307 212 -54 92 -58 134 -55 536 l3 368 36 75 c57
120 152 200 279 236 34 10 140 12 420 11 l375 -2 75 -36z"/>
<path d="M1215 9166 c-151 -48 -254 -149 -297 -289 -17 -56 -20 -86 -16 -159
5 -77 11 -100 42 -163 84 -170 268 -267 449 -237 146 25 260 109 324 240 37
75 38 78 38 191 0 110 -2 120 -32 184 -55 116 -169 207 -294 236 -60 14 -165
12 -214 -3z"/>
<path d="M3002 9743 c-19 -9 -44 -32 -58 -52 -24 -35 -24 -38 -24 -273 l0
-238 -87 0 c-64 0 -98 -5 -123 -18 -37 -18 -80 -82 -80 -119 0 -46 30 -99 72
-126 41 -27 44 -27 212 -27 152 0 174 2 213 21 63 30 83 75 83 184 l0 85 80 0
c159 0 210 50 210 203 l0 87 83 0 c108 1 157 22 187 81 27 51 23 103 -10 150
-41 57 -57 59 -407 59 -274 0 -323 -3 -351 -17z"/>
<path d="M4152 9740 c-90 -55 -97 -180 -12 -240 44 -32 90 -36 142 -12 55 24
94 91 85 148 -16 99 -131 155 -215 104z"/>
<path d="M4740 9742 c-19 -9 -45 -32 -57 -51 -20 -29 -23 -47 -23 -127 l0 -94
-87 0 c-102 0 -145 -16 -180 -69 -22 -32 -23 -43 -23 -221 0 -178 1 -189 23
-221 60 -90 172 -88 241 4 16 22 21 47 24 121 l4 94 93 4 c101 3 126 14 169
72 19 25 21 41 21 214 0 177 -1 189 -23 223 -39 64 -114 85 -182 51z"/>
<path d="M6470 9741 c-108 -57 -104 -204 7 -253 166 -73 285 158 130 252 -40
25 -92 25 -137 1z"/>
<path d="M7051 9742 c-126 -64 -93 -250 48 -269 113 -15 202 124 139 217 -45
65 -121 86 -187 52z"/>
<path d="M8419 9745 c-261 -53 -469 -244 -551 -505 -23 -74 -23 -83 -23 -490
0 -372 2 -422 18 -480 43 -151 126 -277 245 -372 90 -71 165 -110 269 -140 75
-22 93 -23 463 -23 335 0 395 2 461 18 188 44 364 175 467 347 11 20 36 78 54
130 l33 95 0 420 c0 412 0 421 -23 495 -41 130 -87 206 -187 305 -97 98 -172
144 -300 186 -68 22 -83 23 -465 25 -300 2 -411 0 -461 -11z m901 -316 c98
-48 163 -112 209 -209 l36 -75 3 -368 c3 -409 -1 -445 -61 -546 -61 -101 -176
-179 -301 -202 -37 -6 -182 -9 -395 -7 -316 3 -339 5 -394 25 -115 43 -214
138 -258 250 -24 57 -24 66 -27 434 -3 362 -2 380 18 440 26 77 79 159 128
198 47 36 131 79 179 90 21 5 207 9 413 8 l375 -2 75 -36z"/>
<path d="M8747 9170 c-123 -31 -236 -123 -290 -237 -30 -64 -32 -74 -32 -184
0 -113 1 -116 38 -191 64 -131 178 -215 324 -240 181 -30 365 67 449 237 31
63 37 86 42 163 6 115 -19 204 -81 288 -78 106 -194 166 -327 171 -47 1 -102
-2 -123 -7z"/>
<path d="M5600 9452 c-55 -29 -80 -88 -80 -189 l0 -83 -231 0 c-259 0 -282 -5
-320 -67 -17 -27 -20 -45 -17 -89 8 -95 65 -134 196 -134 l80 0 4 -95 c4 -102
15 -127 71 -169 35 -26 114 -27 151 -2 51 33 66 72 66 174 l0 92 145 0 145 0
0 -225 c0 -248 4 -272 58 -317 46 -39 94 -44 150 -16 84 43 82 26 82 563 0
451 -1 471 -20 503 -40 65 -64 72 -265 72 -155 0 -185 -3 -215 -18z"/>
<path d="M3580 9163 c-19 -10 -45 -33 -57 -52 -20 -29 -23 -47 -23 -127 l0
-94 -87 0 c-64 0 -97 -5 -122 -18 -99 -50 -106 -179 -14 -242 31 -21 50 -26
130 -28 l93 -4 0 -144 0 -144 -145 0 -145 0 0 93 c0 105 -16 142 -72 177 -30
18 -51 20 -213 20 -203 0 -231 -7 -273 -70 l-23 -34 3 -332 c3 -318 4 -334 24
-360 51 -69 126 -87 193 -48 52 30 71 79 71 179 l0 85 145 0 145 0 0 -89 c0
-96 15 -132 72 -174 36 -27 111 -26 147 1 56 41 71 77 71 173 l0 89 82 0 c156
0 208 52 208 208 l0 82 86 0 c102 0 149 21 183 80 39 70 18 148 -51 190 -27
16 -51 20 -125 20 l-93 0 0 145 0 145 86 0 c106 0 153 22 184 85 24 50 25 79
2 124 -35 71 -51 76 -260 79 -163 2 -191 0 -222 -15z"/>
<path d="M6490 9173 c-37 -15 -72 -48 -85 -80 -22 -52 -22 -650 0 -692 39 -76
115 -105 188 -73 66 29 87 75 87 187 l0 85 145 0 145 0 0 -88 c0 -79 3 -92 27
-130 41 -63 73 -72 269 -72 190 0 224 10 263 80 20 36 21 50 21 356 0 350 -2
363 -62 407 -40 29 -115 33 -156 8 -57 -36 -72 -74 -72 -178 l0 -93 -290 0
-290 0 0 88 c0 97 -16 141 -61 175 -27 20 -102 31 -129 20z"/>
<path d="M4733 8584 c-57 -28 -73 -68 -73 -178 l0 -96 -91 0 c-111 0 -151 -16
-179 -71 -18 -34 -20 -60 -20 -222 0 -175 1 -186 23 -218 29 -44 70 -63 127
-61 48 2 81 21 114 65 16 22 21 47 24 122 l4 95 143 0 143 0 4 -105 c3 -102 4
-106 34 -136 57 -56 143 -56 207 1 32 28 32 30 35 133 l4 105 97 4 c81 3 102
7 129 27 86 61 81 195 -9 243 -30 16 -60 18 -265 18 l-231 0 -5 93 c-6 105
-23 148 -71 177 -39 24 -100 25 -144 4z"/>
<path d="M6184 8296 c-17 -8 -42 -29 -55 -47 -24 -33 -24 -39 -27 -277 l-3
-243 -142 3 -142 3 -5 101 c-5 97 -9 111 -45 150 -38 41 -124 46 -176 11 -49
-33 -63 -69 -67 -174 l-4 -93 -89 0 c-100 0 -135 -12 -167 -57 -56 -81 -17
-193 77 -222 26 -7 157 -11 399 -11 l360 0 4 -87 c5 -143 49 -183 202 -183
l86 0 0 -86 c0 -99 16 -142 64 -177 44 -31 119 -30 165 2 56 40 61 65 61 310
l0 220 238 3 c268 3 281 7 322 81 38 66 15 146 -53 187 -26 16 -50 20 -124 20
l-93 0 0 238 c0 219 -2 239 -20 270 -32 51 -76 74 -138 69 -38 -3 -59 -10 -78
-28 -52 -48 -54 -61 -54 -314 l0 -235 -145 0 -145 0 0 238 c0 219 -2 239 -20
270 -39 64 -116 88 -186 58z"/>
<path d="M3850 7994 c-61 -52 -76 -119 -41 -184 56 -105 214 -95 257 17 38 99
-29 193 -140 193 -33 0 -52 -6 -76 -26z"/>
<path d="M7320 7994 c-61 -52 -76 -119 -41 -184 38 -73 137 -96 205 -49 119
82 61 259 -86 259 -36 0 -54 -6 -78 -26z"/>
<path d="M3005 7720 c-27 -11 -61 -49 -74 -83 -35 -92 35 -191 134 -189 107 1
178 110 130 201 -26 52 -71 81 -123 80 -26 0 -56 -4 -67 -9z"/>
<path d="M3549 7692 c-33 -31 -42 -46 -46 -83 -19 -165 205 -227 273 -77 43
96 -29 198 -139 198 -42 0 -53 -5 -88 -38z"/>
<path d="M4152 7713 c-19 -9 -41 -32 -53 -54 -18 -36 -19 -62 -19 -496 0 -505
0 -501 63 -547 26 -19 45 -21 213 -24 175 -3 186 -2 224 19 79 45 99 143 43
210 -40 48 -73 59 -168 59 l-85 0 0 145 0 145 85 0 c109 0 154 20 184 83 26
53 26 58 1 108 -33 63 -68 79 -177 79 l-93 0 0 88 c0 101 -16 144 -69 179 -41
27 -101 30 -149 6z"/>
<path d="M676 7420 c-61 -39 -65 -61 -66 -312 l0 -228 -85 0 c-106 0 -145 -15
-179 -69 -25 -40 -26 -45 -26 -218 0 -154 2 -183 19 -213 41 -77 120 -100 194
-57 58 34 77 80 77 187 l0 80 145 0 145 0 0 -239 c0 -231 1 -239 23 -272 40
-61 71 -69 260 -69 182 0 213 6 257 54 25 27 25 30 28 230 l3 203 -27 32 c-41
50 -73 61 -168 61 l-85 0 -3 239 c-3 225 -4 241 -24 268 -43 58 -79 73 -175
73 l-89 0 0 83 c0 94 -17 133 -72 167 -43 26 -113 26 -152 0z"/>
<path d="M1543 7420 c-88 -53 -82 -190 10 -233 125 -59 253 64 192 184 -22 42
-71 69 -125 69 -27 0 -58 -8 -77 -20z"/>
<path d="M2140 7433 c-42 -15 -90 -82 -90 -125 0 -37 42 -99 80 -119 69 -37
149 -14 190 53 38 62 14 150 -50 183 -28 15 -100 19 -130 8z"/>
<path d="M2714 7430 c-27 -11 -72 -65 -80 -96 -20 -77 58 -164 148 -164 65 0
138 70 138 132 0 41 -28 91 -64 116 -34 23 -101 29 -142 12z"/>
<path d="M5013 7420 c-49 -29 -63 -66 -63 -165 l0 -85 -87 0 c-102 0 -145 -16
-180 -69 -40 -60 -27 -136 32 -191 24 -22 36 -25 130 -28 l104 -4 3 -248 3
-248 25 -27 c14 -15 37 -33 52 -41 54 -28 118 -13 168 41 l25 27 3 249 3 249
144 0 143 0 4 -94 c3 -104 15 -131 78 -173 60 -41 143 -20 187 46 22 32 23 43
23 221 0 178 -1 189 -23 221 -43 64 -64 69 -324 69 l-233 0 0 85 c0 58 -5 96
-15 116 -22 42 -71 69 -125 69 -27 0 -58 -8 -77 -20z"/>
<path d="M7350 7433 c-24 -9 -61 -45 -76 -75 -30 -57 -5 -129 58 -168 27 -16
51 -20 126 -20 l92 0 0 -290 0 -290 -87 0 c-106 0 -147 -17 -181 -75 -41 -72
-13 -163 62 -199 23 -11 61 -16 119 -16 l85 0 4 -99 c3 -112 16 -139 78 -173
31 -17 54 -18 217 -16 201 3 212 6 261 78 22 32 22 38 22 348 0 295 -1 318
-20 357 -31 63 -78 85 -184 85 l-86 0 0 225 c0 243 -2 256 -55 305 -26 25 -29
25 -223 27 -108 1 -204 -1 -212 -4z"/>
<path d="M8198 7425 c-36 -20 -68 -75 -68 -117 0 -45 35 -98 80 -120 29 -15
63 -18 209 -18 157 0 177 2 211 21 68 39 91 120 50 186 -35 58 -58 63 -267 63
-144 -1 -194 -4 -215 -15z"/>
<path d="M9080 7433 c-57 -21 -90 -90 -90 -188 l0 -75 -82 0 c-101 0 -158 -23
-182 -75 -22 -47 -33 -298 -17 -377 26 -124 148 -167 239 -83 l37 33 3 106 4
106 144 0 144 0 0 -80 c0 -46 6 -94 14 -113 48 -112 187 -127 253 -28 20 29
23 47 23 127 l0 94 88 0 c63 0 96 5 121 18 100 50 106 185 11 250 -32 21 -41
22 -271 22 l-239 0 0 81 c0 95 -18 142 -64 170 -30 18 -102 24 -136 12z"/>
<path d="M3292 7153 c-51 -25 -77 -69 -77 -130 0 -118 128 -182 225 -113 60
43 75 118 37 184 -39 68 -116 93 -185 59z"/>
<path d="M7050 7151 c-19 -10 -45 -36 -57 -57 -21 -36 -23 -51 -23 -212 0
-193 8 -225 62 -263 69 -50 169 -26 208 51 18 35 20 59 20 210 0 199 -10 234
-80 270 -49 25 -85 25 -130 1z"/>
<path d="M2133 6859 c-31 -15 -48 -33 -64 -65 -28 -59 -20 -103 31 -158 l39
-41 188 -3 c169 -2 192 -1 223 16 47 26 71 62 76 113 5 55 -19 105 -65 136
-32 22 -43 23 -210 23 -158 0 -180 -2 -218 -21z"/>
<path d="M3582 6863 c-18 -9 -43 -30 -55 -47 -21 -30 -22 -42 -25 -273 l-3
-243 -85 0 c-102 0 -144 -16 -180 -69 -21 -31 -24 -47 -24 -128 l0 -93 -145 0
-145 0 0 93 c0 104 -15 142 -72 177 -32 20 -47 20 -368 18 -378 -3 -371 -2
-412 -81 -24 -48 -20 -94 14 -143 39 -58 71 -64 323 -64 l225 0 0 -80 c0 -98
18 -147 67 -180 36 -25 39 -25 275 -28 l238 -3 0 -145 0 -144 -232 0 c-256 0
-279 -5 -322 -63 -20 -26 -21 -46 -26 -269 l-5 -241 -93 -2 c-100 -2 -124 -11
-166 -69 -17 -22 -22 -46 -24 -122 l-4 -94 -144 0 -145 0 3 143 3 142 101 5
c113 6 141 18 168 73 20 44 20 89 0 130 -38 73 -52 77 -271 77 -171 0 -191 -2
-221 -20 -49 -30 -72 -88 -72 -185 l0 -80 -142 2 -143 2 -5 98 c-3 54 -11 108
-18 121 -32 56 -129 80 -193 47 -53 -28 -69 -68 -69 -172 l0 -92 -237 -3
c-265 -3 -282 -7 -322 -71 -19 -32 -21 -49 -21 -216 0 -196 4 -213 55 -261 24
-23 36 -25 130 -28 l103 -4 4 -104 3 -104 38 -37 37 -38 483 -3 c467 -2 483
-2 515 18 57 35 72 73 72 178 l0 92 383 0 c364 0 384 1 415 20 56 35 72 72 72
178 l0 92 93 0 c74 0 98 4 125 20 69 43 92 128 50 190 -43 62 -68 73 -170 75
l-93 2 -3 141 -3 140 238 4 c213 3 241 5 270 22 53 33 73 81 73 180 l0 86 80
0 c107 0 153 19 187 77 41 71 21 150 -50 193 -26 16 -50 20 -124 20 l-93 0 0
145 0 145 290 0 290 0 0 -87 c0 -99 16 -142 63 -177 23 -17 47 -22 128 -24
l99 -4 0 -144 0 -144 -237 0 c-220 0 -240 -2 -271 -20 -93 -57 -95 -186 -3
-242 l36 -23 668 -3 667 -3 0 -65 c0 -90 16 -147 52 -181 l29 -28 395 -3 394
-3 0 -232 c0 -201 2 -237 18 -266 31 -62 61 -76 173 -79 l99 -4 0 -86 c0 -139
43 -197 145 -197 102 0 145 58 145 198 l0 87 290 0 290 0 0 -145 0 -145 -82 0
c-109 -1 -158 -22 -188 -81 -38 -74 -13 -154 61 -191 31 -16 76 -18 499 -18
524 0 513 -2 557 76 19 32 23 54 23 127 l0 87 88 0 c108 0 147 17 180 80 20
40 22 58 22 195 0 82 -5 168 -11 190 -28 102 -136 142 -222 83 -45 -32 -57
-67 -57 -166 l0 -90 -100 -4 c-80 -3 -105 -8 -127 -24 -47 -35 -63 -79 -63
-176 l0 -88 -145 0 -145 0 0 290 0 290 94 0 c80 0 98 3 127 23 89 59 88 172
-3 240 -21 15 -45 20 -120 22 l-93 2 -3 142 -3 141 146 0 145 0 0 -84 c0 -47
4 -96 9 -109 13 -34 57 -76 87 -83 45 -11 114 2 141 27 43 41 53 72 53 164 l0
85 145 0 145 0 0 -90 c0 -63 5 -100 15 -121 48 -92 202 -92 250 0 12 25 15 72
15 264 l0 235 98 4 c73 3 106 8 126 21 85 56 89 181 8 242 -24 18 -45 20 -214
23 -268 5 -289 -8 -298 -183 l-5 -100 -142 -3 -141 -3 -4 93 c-4 106 -18 142
-67 175 l-34 23 -471 0 c-525 0 -517 1 -563 -69 -22 -33 -23 -41 -23 -272 l0
-239 -145 0 -145 0 0 88 c0 102 -16 144 -70 180 -28 19 -44 23 -83 19 -98 -9
-137 -66 -137 -200 l0 -87 -287 2 -288 3 -3 288 -2 287 145 0 145 0 0 -80 c0
-96 18 -147 63 -177 50 -34 87 -38 140 -15 65 29 87 75 87 185 l0 85 98 4
c112 4 141 18 174 81 36 72 10 153 -63 189 -31 16 -76 18 -499 18 -530 0 -515
2 -557 -80 -22 -42 -23 -55 -23 -272 l0 -228 -284 0 -285 0 -3 383 -3 384 -25
36 c-61 89 -184 86 -240 -6 -16 -26 -20 -50 -20 -124 l0 -93 -145 0 -145 0 0
88 c0 104 -18 146 -76 179 -37 22 -49 23 -271 23 l-233 0 0 230 c0 212 -2 234
-20 270 -22 44 -80 80 -127 80 -15 0 -43 -8 -61 -17z m3388 -2148 l0 -145
-290 0 -290 0 0 145 0 145 290 0 290 0 0 -145z m-5210 -290 l0 -145 -285 0
-285 0 0 145 0 145 285 0 285 0 0 -145z"/>
<path d="M6180 6861 c-57 -30 -80 -81 -80 -182 l0 -87 -97 -4 c-74 -3 -105 -8
-126 -22 -31 -21 -67 -83 -67 -115 0 -41 31 -96 67 -121 36 -25 40 -25 227
-25 182 0 193 1 222 22 56 40 64 71 64 262 0 153 -2 176 -20 212 -38 73 -118
99 -190 60z"/>
<path d="M3002 6574 c-127 -65 -94 -252 47 -271 142 -19 217 174 100 260 -37
27 -106 32 -147 11z"/>
<path d="M6762 6574 c-18 -9 -43 -31 -55 -48 -20 -29 -22 -44 -25 -213 -3
-198 2 -223 56 -270 34 -29 62 -33 241 -33 132 0 163 3 198 19 79 36 105 138
54 209 -33 46 -77 62 -175 62 l-86 0 0 88 c0 96 -16 141 -62 175 -36 27 -105
32 -146 11z"/>
<path d="M9651 6573 c-100 -50 -102 -202 -2 -252 76 -39 153 -16 192 59 66
123 -64 255 -190 193z"/>
<path d="M8494 6281 c-74 -45 -97 -129 -54 -199 40 -65 64 -72 260 -72 197 0
226 8 267 69 46 69 19 165 -57 203 -29 15 -63 18 -210 18 -154 0 -179 -2 -206
-19z"/>
<path d="M9359 6280 c-72 -38 -95 -111 -59 -186 66 -136 270 -90 270 61 0 109
-114 176 -211 125z"/>
<path d="M8205 5994 c-40 -21 -66 -58 -72 -104 -7 -51 1 -82 32 -119 51 -60
138 -65 200 -10 126 111 -10 308 -160 233z"/>
<path d="M392 5701 c-18 -12 -41 -35 -52 -53 -19 -32 -20 -47 -18 -371 l3
-338 42 -40 c37 -34 48 -39 90 -39 57 0 105 26 133 72 16 26 20 51 20 119 l0
86 96 5 c102 6 127 16 168 72 28 37 27 116 0 154 -35 46 -79 62 -176 62 l-88
0 0 88 c-1 134 -40 191 -137 199 -36 3 -56 -1 -81 -16z"/>
<path d="M973 5704 c-52 -26 -76 -74 -71 -140 4 -42 11 -61 33 -84 57 -60 138
-63 200 -9 101 89 41 250 -92 249 -21 0 -53 -8 -70 -16z"/>
<path d="M1550 5701 c-68 -36 -75 -63 -74 -267 1 -198 7 -223 65 -266 56 -42
161 -18 199 45 18 29 20 51 20 221 0 180 -1 191 -22 223 -42 61 -122 80 -188
44z"/>
<path d="M2123 5701 c-68 -43 -88 -113 -54 -185 39 -79 136 -107 208 -61 80
53 83 183 6 239 -39 29 -120 32 -160 7z"/>
<path d="M9361 5702 c-52 -26 -76 -65 -76 -122 0 -52 19 -87 69 -124 60 -45
165 -16 202 56 20 40 14 115 -12 151 -40 55 -120 72 -183 39z"/>
<path d="M3590 5133 c-8 -3 -26 -15 -38 -27 -47 -42 -52 -64 -52 -246 0 -185
6 -216 54 -260 25 -23 37 -25 132 -28 l104 -4 0 -89 c0 -97 10 -127 55 -169
24 -23 36 -25 131 -28 l104 -4 0 -91 c0 -154 43 -197 198 -197 l92 0 0 -94 c0
-80 3 -98 23 -127 41 -61 70 -69 265 -69 197 0 227 8 263 67 17 27 20 45 17
89 -8 95 -65 134 -197 134 l-80 0 -3 239 c-3 224 -4 241 -24 267 -41 56 -66
66 -167 72 l-95 5 -4 93 c-3 100 -14 125 -72 168 -26 20 -41 21 -267 21 l-239
0 0 90 c0 102 -16 141 -72 175 -32 19 -94 25 -128 13z"/>
<path d="M9075 5131 c-55 -23 -85 -94 -85 -198 l0 -78 -77 3 c-65 2 -85 -1
-123 -20 -76 -39 -83 -62 -84 -272 -1 -164 1 -184 19 -215 38 -64 121 -88 190
-55 56 26 69 57 75 169 l5 100 100 5 c153 8 177 32 185 185 l5 100 101 5 c113
6 141 18 168 73 34 73 8 159 -61 195 -25 14 -386 16 -418 3z"/>
<path d="M9632 4828 c-63 -45 -78 -142 -31 -202 44 -56 131 -73 191 -38 36 20
68 79 68 123 0 45 -29 98 -64 120 -44 27 -122 25 -164 -3z"/>
<path d="M3315 4559 c-40 -12 -58 -27 -84 -69 -19 -32 -21 -49 -21 -216 0
-172 1 -183 23 -215 41 -62 69 -69 273 -69 l181 0 41 29 c69 51 80 137 25 202
-38 45 -80 59 -173 59 l-80 0 0 89 c0 75 -3 93 -22 121 -43 62 -103 88 -163
69z"/>
<path d="M5046 4560 c-15 -5 -37 -17 -48 -27 -44 -39 -48 -63 -48 -259 0 -178
1 -189 23 -221 33 -49 71 -63 171 -63 l86 0 0 -145 0 -145 -87 0 c-70 0 -95
-4 -121 -20 -46 -28 -72 -76 -72 -133 0 -42 5 -53 39 -90 l40 -42 188 -3 c212
-3 238 3 280 67 22 33 23 41 23 272 l0 239 145 0 145 0 0 -290 0 -290 -82 0
c-107 0 -158 -23 -187 -84 -19 -39 -21 -61 -21 -269 l0 -227 -85 0 c-153 0
-195 -40 -203 -197 l-5 -93 -84 0 c-99 0 -143 -16 -173 -65 -31 -49 -27 -125
7 -166 38 -45 80 -59 173 -59 l80 0 0 -145 0 -145 -139 0 -138 0 -5 94 c-6
109 -24 151 -78 179 -43 22 -116 18 -153 -9 -53 -40 -57 -57 -57 -259 0 -206
5 -225 62 -267 32 -22 40 -23 270 -26 l237 -3 3 -377 c3 -341 5 -380 21 -410
50 -92 192 -96 247 -7 19 31 20 49 20 412 l0 380 93 5 c106 6 145 22 176 71
27 44 27 99 -1 148 -30 54 -68 69 -177 69 l-91 0 0 290 0 290 88 0 c101 0 144
16 179 69 20 29 23 47 23 127 l0 94 289 0 290 0 3 -239 c3 -224 4 -241 24
-267 71 -96 186 -95 241 2 19 32 23 54 23 127 l0 87 85 0 c108 0 155 21 186
82 26 50 22 102 -11 149 -32 44 -75 59 -175 59 l-85 0 0 290 0 290 86 0 c98 0
142 16 176 62 50 70 22 174 -56 211 -34 16 -61 18 -220 15 -204 -3 -221 -9
-257 -79 -17 -35 -19 -60 -19 -269 l0 -230 -145 0 -145 0 0 290 0 290 93 0
c74 0 98 4 125 20 70 43 90 122 49 195 -32 58 -73 75 -179 75 l-86 0 -4 98
c-3 83 -6 102 -27 131 -41 56 -64 61 -321 61 l-230 0 0 93 c0 74 -4 98 -20
124 -38 63 -55 68 -250 70 -96 1 -188 -2 -204 -7z"/>
<path d="M9386 4560 c-16 -5 -42 -21 -57 -36 -96 -92 -33 -244 101 -244 78 0
131 52 137 134 5 65 -21 110 -80 136 -46 21 -58 22 -101 10z"/>
<path d="M425 4273 c-36 -10 -66 -36 -86 -74 -18 -35 -19 -61 -19 -356 0 -350
2 -362 63 -407 26 -19 45 -21 215 -24 218 -3 241 3 280 79 22 42 23 53 20 220
-3 168 -4 177 -28 212 -33 49 -82 67 -179 67 l-79 0 -4 94 c-3 101 -14 127
-69 168 -26 20 -82 30 -114 21z"/>
<path d="M9651 4259 c-78 -40 -102 -137 -51 -209 101 -141 318 -11 244 146
-35 74 -118 101 -193 63z"/>
<path d="M2145 3976 c-42 -18 -83 -69 -91 -113 -5 -29 -2 -47 17 -82 34 -64
73 -81 180 -81 l87 0 4 -98 c3 -81 7 -103 26 -129 63 -88 195 -79 244 18 15
29 18 62 18 209 0 163 -2 178 -23 215 -37 67 -66 75 -262 75 -119 -1 -179 -5
-200 -14z"/>
<path d="M3003 3971 c-107 -50 -108 -197 -3 -252 119 -64 253 63 195 185 -35
74 -116 103 -192 67z"/>
<path d="M8795 3976 c-54 -24 -85 -71 -85 -128 0 -116 105 -182 208 -129 47
24 72 67 72 123 0 103 -105 175 -195 134z"/>
<path d="M9364 3971 c-30 -14 -47 -30 -63 -64 -21 -44 -22 -50 -19 -510 3
-452 4 -466 24 -493 69 -93 181 -95 241 -5 l23 34 0 471 c0 429 -2 474 -18
505 -36 72 -113 97 -188 62z"/>
<path d="M1270 3682 c-19 -9 -45 -32 -57 -51 -20 -29 -23 -47 -23 -127 l0 -94
-87 0 c-103 0 -145 -16 -181 -70 -20 -29 -23 -44 -20 -88 8 -94 65 -132 203
-132 l85 0 0 -145 0 -145 -382 0 c-365 0 -385 -1 -416 -20 -50 -31 -74 -76
-69 -133 5 -57 30 -95 78 -119 32 -17 97 -18 929 -18 832 0 897 1 929 18 48
24 73 62 78 119 5 57 -19 102 -69 133 -31 18 -51 20 -270 20 l-238 0 0 383 c0
364 -1 384 -20 415 -40 65 -64 72 -260 72 -147 0 -181 -3 -210 -18z"/>
<path d="M3290 3681 c-103 -54 -102 -200 1 -254 90 -48 209 25 209 128 0 45
-37 103 -80 125 -49 25 -85 25 -130 1z"/>
<path d="M3872 3683 c-18 -9 -43 -30 -55 -47 -21 -30 -22 -42 -25 -273 l-3
-243 -522 0 c-588 0 -569 2 -614 -76 -27 -47 -29 -84 -7 -127 36 -70 74 -87
190 -87 l84 0 0 -145 0 -145 -86 0 c-97 0 -142 -16 -174 -60 -45 -63 -30 -150
33 -200 31 -25 33 -25 227 -25 220 0 234 4 271 76 17 35 19 60 19 269 l0 230
145 0 145 0 0 -231 c0 -256 5 -280 63 -321 26 -19 48 -23 129 -26 l98 -4 0
-574 0 -573 -382 -3 c-356 -3 -385 -4 -415 -22 -53 -33 -73 -81 -73 -180 l0
-86 -82 0 c-63 0 -92 -5 -125 -21 -107 -52 -108 -197 -2 -251 31 -16 72 -18
412 -18 l377 0 0 -87 c0 -64 5 -97 18 -122 50 -100 185 -106 250 -11 21 32 22
41 22 271 l0 239 94 0 c80 0 98 3 127 23 64 43 69 64 69 324 l0 232 143 -2
142 -2 5 -100 c5 -107 21 -143 73 -172 34 -19 108 -16 144 7 62 38 68 56 71
246 3 155 2 177 -17 218 -36 82 -49 86 -323 86 l-238 0 0 435 0 435 370 0
c407 0 414 1 463 59 36 43 38 119 5 167 -33 49 -75 64 -173 64 l-85 0 0 145 0
145 85 0 c65 0 95 5 123 19 80 41 100 152 38 219 -46 52 -48 52 -451 52 l-375
0 0 80 c0 113 -21 159 -87 194 -40 20 -79 20 -121 -1z m498 -708 l0 -145 -145
0 -145 0 0 145 0 145 145 0 145 0 0 -145z"/>
<path d="M8210 3682 c-19 -9 -45 -33 -58 -52 -60 -89 10 -220 118 -220 41 0
98 27 116 55 53 81 30 176 -53 219 -41 21 -79 20 -123 -2z"/>
<path d="M2127 3389 c-26 -14 -45 -34 -58 -62 -23 -53 -23 -71 0 -124 34 -74
130 -105 199 -63 95 58 95 192 0 250 -42 25 -92 25 -141 -1z"/>
<path d="M7052 3393 c-79 -39 -104 -145 -50 -215 82 -108 259 -47 258 89 0 41
-40 103 -80 124 -42 23 -84 24 -128 2z"/>
<path d="M7640 3399 c-36 -14 -60 -39 -76 -78 -11 -25 -14 -87 -14 -262 l0
-229 -87 0 c-102 0 -145 -16 -180 -69 l-23 -34 0 -614 c0 -665 -2 -640 55
-693 27 -25 27 -25 273 -30 l247 -5 5 -247 5 -248 38 -37 37 -38 481 -3 c427
-2 484 -1 514 14 95 45 100 191 10 250 -19 12 -55 18 -126 22 l-100 5 3 141 3
141 100 5 c55 3 110 11 123 18 81 46 81 198 0 244 -13 7 -68 15 -123 18 l-100
5 -3 141 -3 142 99 4 c110 4 139 16 172 71 24 39 26 109 4 145 -32 54 -61 67
-169 72 l-100 5 -2 143 -2 142 87 0 c101 0 144 17 179 69 46 69 19 165 -57
203 -25 13 -59 18 -121 18 l-87 0 -1 98 c-1 107 -10 128 -71 170 -62 42 -147
19 -190 -50 -16 -27 -20 -51 -20 -125 l0 -93 -145 0 -145 0 0 82 c0 157 -50
208 -205 208 l-85 0 0 80 c0 106 -19 153 -75 185 -44 26 -83 30 -125 14z m778
-1291 l-3 -433 -432 -3 -433 -2 0 435 0 435 435 0 435 0 -2 -432z"/>
<path d="M7925 2240 c-11 -4 -33 -22 -49 -39 -57 -60 -43 -170 27 -216 72 -46
169 -18 208 61 34 72 14 143 -54 184 -33 21 -96 25 -132 10z"/>
<path d="M8785 3394 c-102 -51 -100 -209 2 -258 65 -31 127 -15 177 44 38 45
37 125 -1 171 -47 56 -118 73 -178 43z"/>
<path d="M5034 3111 c-11 -5 -35 -26 -53 -47 -31 -35 -33 -41 -29 -95 3 -45
10 -65 29 -85 69 -74 157 -71 223 6 21 26 26 42 26 86 0 50 -4 59 -38 96 -33
35 -45 41 -88 44 -27 2 -58 0 -70 -5z"/>
<path d="M9652 2813 c-72 -35 -100 -119 -63 -191 38 -74 131 -103 199 -62 156
96 29 334 -136 253z"/>
<path d="M9070 2522 c-48 -25 -84 -96 -74 -147 14 -76 96 -134 169 -121 100
19 152 150 89 226 -51 61 -119 76 -184 42z"/>
<path d="M885 2234 c-38 -8 -113 -35 -165 -61 -81 -39 -108 -59 -186 -137 -99
-100 -145 -175 -186 -306 -23 -74 -23 -83 -23 -490 0 -408 0 -416 23 -490 74
-234 245 -409 477 -488 l80 -27 415 0 c468 0 475 1 630 77 112 54 250 187 303
293 80 160 81 164 85 598 4 438 -2 494 -63 624 -43 93 -79 144 -146 212 -101
100 -224 167 -364 196 -99 21 -778 20 -880 -1z m867 -294 c121 -37 222 -130
271 -250 21 -53 22 -68 25 -430 3 -424 1 -443 -73 -555 -44 -65 -92 -104 -185
-149 l-65 -31 -368 -3 c-306 -2 -378 0 -428 12 -125 33 -219 111 -277 234
l-37 77 0 395 0 395 32 68 c60 125 140 198 263 238 48 16 98 18 416 18 333 1
367 -1 426 -19z"/>
<path d="M1198 1655 c-68 -22 -167 -93 -210 -150 -52 -69 -80 -145 -86 -238
-15 -243 156 -440 395 -455 192 -12 349 81 430 254 26 54 28 69 28 174 0 110
-2 118 -33 182 -47 96 -107 157 -198 204 -72 36 -82 39 -178 41 -68 2 -116 -2
-148 -12z"/>
<path d="M3282 2230 c-154 -94 -34 -325 131 -252 78 34 110 130 67 200 -42 68
-132 92 -198 52z"/>
<path d="M9361 2232 c-51 -26 -74 -63 -75 -121 -2 -83 61 -147 144 -145 88 1
144 62 137 150 -4 58 -27 95 -75 118 -43 21 -89 20 -131 -2z"/>
<path d="M6761 1942 c-70 -35 -76 -52 -79 -254 -4 -201 0 -220 55 -268 28 -25
42 -30 88 -30 59 0 102 27 130 81 23 44 21 362 -3 409 -36 72 -119 99 -191 62z"/>
<path d="M2720 1663 c-8 -3 -26 -15 -38 -27 -101 -91 -42 -246 94 -246 61 0
105 25 127 73 47 99 -18 208 -124 206 -24 0 -51 -3 -59 -6z"/>
<path d="M3300 1663 c-24 -9 -61 -46 -76 -75 -29 -57 -11 -123 46 -172 25 -21
42 -26 85 -26 43 0 60 5 85 26 77 66 80 154 6 223 -19 18 -39 25 -78 27 -29 2
-60 1 -68 -3z"/>
<path d="M5879 1647 c-61 -40 -69 -70 -69 -262 0 -192 8 -222 69 -262 29 -20
47 -23 127 -23 l92 0 4 -99 c2 -81 7 -105 24 -128 35 -47 78 -63 177 -63 l87
0 0 -239 c0 -230 1 -239 23 -271 12 -18 38 -41 57 -51 33 -18 74 -19 790 -19
857 0 802 -5 849 81 29 54 24 102 -16 150 -38 45 -80 59 -172 59 l-79 0 -4 94
c-2 76 -7 100 -24 122 -43 58 -68 69 -169 72 l-93 4 -4 93 c-3 100 -14 126
-70 168 -33 24 -107 25 -148 0 -64 -37 -70 -65 -70 -323 l0 -230 -290 0 -290
0 0 145 0 145 93 0 c105 0 142 16 177 72 38 63 17 140 -53 192 -27 20 -43 21
-268 24 l-239 4 0 83 c0 94 -15 138 -58 170 -21 16 -48 21 -127 25 l-100 5 -5
95 c-5 103 -13 124 -61 164 -41 35 -111 36 -160 3z"/>
<path d="M9642 1650 c-90 -55 -95 -163 -12 -234 40 -33 118 -36 166 -7 83 51
83 189 -1 241 -42 26 -110 26 -153 0z"/>
<path d="M7017 1341 c-41 -38 -42 -42 -42 -101 0 -60 1 -63 43 -102 43 -39 45
-40 103 -36 45 3 65 10 85 29 103 95 45 249 -95 249 -47 0 -56 -4 -94 -39z"/>
<path d="M9075 1371 c-28 -12 -52 -40 -70 -84 -18 -43 -8 -106 22 -139 39 -44
63 -48 259 -48 170 0 190 2 219 20 84 52 84 190 1 241 -28 17 -52 19 -221 18
-104 0 -199 -4 -210 -8z"/>
<path d="M4765 1093 c-32 -8 -74 -42 -91 -74 -12 -25 -14 -80 -12 -368 l3
-339 25 -27 c70 -76 181 -70 232 14 22 35 23 45 26 329 2 187 -1 311 -8 346
-12 61 -47 101 -101 116 -36 11 -42 11 -74 3z"/>
<path d="M5324 506 c-107 -47 -114 -211 -11 -259 30 -15 77 -17 359 -17 305 0
325 1 356 20 18 11 41 34 53 52 41 66 6 174 -67 204 -48 20 -644 20 -690 0z"/>
<path d="M8795 506 c-17 -7 -43 -28 -58 -45 -34 -41 -38 -119 -8 -167 37 -60
121 -80 189 -45 47 24 72 67 72 123 0 103 -105 175 -195 134z"/>
<path d="M9648 500 c-49 -27 -82 -89 -75 -141 14 -103 129 -162 215 -109 67
41 90 120 54 189 -36 73 -123 100 -194 61z"/>
</g>
</svg>
